<?xml version="1.0" encoding="utf-8"?>
<!-- Generator: Adobe Illustrator 22.0.1, SVG Export Plug-In . SVG Version: 6.00 Build 0)  -->
<svg version="1.1" id="mgmA12Bap" xmlns="http://www.w3.org/2000/svg" xmlns:xlink="http://www.w3.org/1999/xlink" x="0px" y="0px"
	 viewBox="0 0 148 33" style="enable-background:new 0 0 148 33;" xml:space="preserve">
<path id="Logo" style="fill:#056294;" d="M50.11,13.78c0,0.05-0.04,0.07-0.13,0.07H49.4c-0.06,0-0.11-0.03-0.14-0.1l-0.5-1.77h-1.85l-0.51,1.77
	c-0.02,0.07-0.06,0.1-0.13,0.1h-0.55c-0.09,0-0.13-0.02-0.13-0.06c0-0.02,0.01-0.04,0.02-0.08l1.83-5.99
	c0.02-0.07,0.06-0.1,0.13-0.1h0.55c0.07,0,0.12,0.03,0.14,0.1l1.83,5.99C50.1,13.75,50.11,13.77,50.11,13.78z M48.59,11.35l-0.55-2
	c-0.08-0.29-0.15-0.58-0.21-0.87c-0.04,0.21-0.11,0.5-0.21,0.86l-0.55,2.01H48.59z M53.72,13.72c0,0.09-0.04,0.13-0.12,0.13h-2.41
	c-0.09,0-0.13-0.04-0.13-0.13v-0.34c0-0.09,0.04-0.13,0.13-0.13h0.93V8.8l-1.28,0.74c-0.03,0.02-0.06,0.04-0.09,0.04
	c-0.03,0-0.05-0.03-0.08-0.08l-0.11-0.2c-0.02-0.03-0.03-0.06-0.03-0.09c0-0.02,0.02-0.05,0.07-0.07l1.61-1.14h0.46
	c0.09,0,0.13,0.04,0.13,0.13v5.13h0.79c0.08,0,0.12,0.04,0.12,0.13V13.72z M57.92,13.72c0,0.09-0.04,0.13-0.13,0.13h-3.05
	c-0.06,0-0.09-0.01-0.1-0.04c-0.01-0.02-0.01-0.05-0.01-0.09c0-0.65,0.12-1.2,0.36-1.65c0.24-0.45,0.64-0.86,1.18-1.24
	c0.41-0.28,0.67-0.49,0.78-0.63c0.15-0.2,0.23-0.44,0.23-0.72c0-0.3-0.08-0.53-0.24-0.7c-0.16-0.17-0.38-0.26-0.65-0.26
	c-0.47,0-0.81,0.3-1.03,0.91c-0.02,0.05-0.04,0.07-0.08,0.07c-0.02,0-0.04-0.01-0.07-0.02l-0.4-0.12c-0.05-0.02-0.08-0.04-0.08-0.08
	c0-0.07,0.04-0.2,0.12-0.36S54.92,8.61,55,8.5c0.32-0.42,0.77-0.63,1.33-0.63c0.49,0,0.88,0.15,1.16,0.45
	c0.28,0.3,0.43,0.7,0.43,1.2c0,0.35-0.08,0.65-0.23,0.9c-0.16,0.25-0.44,0.51-0.84,0.8c-0.48,0.33-0.82,0.64-1.03,0.93
	c-0.21,0.29-0.33,0.64-0.38,1.04h2.35c0.09,0,0.13,0.04,0.13,0.13V13.72z M36.87,12.69v-2.47c-0.26-0.16-0.57-0.25-0.87-0.25
	c-0.67,0-1.03,0.55-1.03,1.59c0,1.11,0.24,1.58,0.82,1.58C36.12,13.13,36.4,13.01,36.87,12.69z M37.56,10.72v1.39
	c0,0.51,0,0.73,0.02,1.02l0.03,0.53c0.01,0.21,0.02,0.38,0.02,0.52c0,1.06-0.56,1.62-1.62,1.62c-0.52-0.01-1.03-0.15-1.48-0.4
	c-0.04-0.01-0.06-0.05-0.06-0.09v-0.03c0.01-0.01,0.01-0.02,0.02-0.03l0.16-0.36c0.02-0.04,0.04-0.06,0.07-0.06
	c0.02,0,0.05,0.01,0.07,0.03c0.37,0.2,0.77,0.31,1.19,0.34c0.7,0,0.98-0.28,0.98-1c0-0.14-0.01-0.29-0.01-0.46
	c-0.01-0.22-0.02-0.35-0.02-0.38v-0.09c-0.35,0.32-0.8,0.49-1.27,0.5c-0.87,0-1.42-0.77-1.42-2.02c0-1.52,0.62-2.37,1.73-2.37
	c0.33-0.01,0.65,0.08,0.92,0.26V9.47c0-0.08,0.02-0.1,0.1-0.1h0.47c0.08,0,0.11,0.02,0.11,0.07L37.56,10.72L37.56,10.72z
	 M38.97,9.82c0.44-0.33,0.78-0.46,1.19-0.46c0.38-0.03,0.74,0.18,0.87,0.54c0.54-0.38,0.91-0.54,1.33-0.54
	c0.7,0,0.99,0.38,0.99,1.29v3.12c0,0.08-0.02,0.1-0.1,0.1h-0.47c-0.09,0-0.11-0.02-0.11-0.1v-3.15c0-0.46-0.18-0.67-0.58-0.67
	c-0.29,0-0.52,0.08-0.93,0.36v3.49c0,0.05-0.03,0.07-0.1,0.07h-0.47c-0.08,0-0.1-0.02-0.1-0.1v-3.14c0-0.45-0.2-0.68-0.59-0.68
	c-0.29,0-0.54,0.1-0.91,0.38v3.43c0,0.08-0.02,0.1-0.1,0.1H38.4c-0.08,0-0.11-0.02-0.11-0.07V9.46c0-0.08,0.02-0.1,0.1-0.1h0.47
	c0.08,0,0.11,0.02,0.11,0.07L38.97,9.82L38.97,9.82z M29.25,9.83c0.44-0.33,0.78-0.46,1.19-0.46c0.38-0.03,0.74,0.18,0.87,0.54
	c0.54-0.38,0.91-0.54,1.33-0.54c0.7,0,0.99,0.38,0.99,1.29v3.12c0,0.08-0.02,0.1-0.1,0.1h-0.47c-0.09,0-0.11-0.02-0.11-0.1v-3.15
	c0-0.46-0.18-0.67-0.58-0.67c-0.29,0-0.52,0.08-0.93,0.36v3.49c0,0.05-0.03,0.07-0.1,0.07h-0.48c-0.08,0-0.1-0.02-0.1-0.1v-3.14
	c0-0.45-0.2-0.68-0.59-0.68c-0.29,0-0.54,0.1-0.91,0.38v3.43c0,0.08-0.02,0.1-0.1,0.1h-0.46c-0.08,0-0.11-0.02-0.11-0.07V9.47
	c0-0.08,0.02-0.1,0.1-0.1h0.47c0.08,0,0.11,0.02,0.11,0.07L29.25,9.83L29.25,9.83z M19.12,21.68c0.01-0.1-0.06-0.19-0.16-0.21h-7.34
	c-0.56,0.05-1.06-0.37-1.1-0.94c-0.01-0.07,0-0.14,0-0.22v-7.98c0.01-0.1-0.05-0.19-0.15-0.21H8.22c-0.1-0.02-0.2,0.05-0.21,0.15
	c0,0.02,0,0.05,0,0.07v7.49l0,0v1.31c0,1.86,0.84,2.84,2.84,2.84h8.05c0.1,0.01,0.19-0.06,0.21-0.16c0-0.02,0-0.03,0-0.05
	L19.12,21.68z M12.36,10.31c-0.01,0.1,0.06,0.19,0.16,0.21h7.33c0.56-0.05,1.06,0.37,1.11,0.93c0.01,0.07,0,0.14,0,0.22v7.98
	c-0.01,0.1,0.06,0.19,0.16,0.21h2.15c0.1,0.01,0.19-0.06,0.21-0.16c0-0.02,0-0.03,0-0.05v-7.5l0,0v-1.29c0-1.86-0.84-2.84-2.84-2.84
	h-8.05c-0.1-0.01-0.19,0.06-0.21,0.16c0,0.02,0,0.03,0,0.05L12.36,10.31z M32.07,22.18c0,0.32-0.06,0.61-0.19,0.87
	c-0.1,0.21-0.24,0.39-0.41,0.53c-0.17,0.14-0.38,0.23-0.61,0.28c-0.24,0.05-0.57,0.07-0.98,0.07h-1.26c-0.07,0-0.11-0.04-0.11-0.11
	V17.8c0-0.07,0.04-0.11,0.11-0.11h1.42c0.5,0,0.89,0.07,1.16,0.21c0.44,0.22,0.65,0.65,0.65,1.27c0,0.33-0.07,0.62-0.22,0.87
	c-0.15,0.25-0.37,0.45-0.68,0.61c0.32,0.08,0.58,0.23,0.77,0.46C31.96,21.38,32.07,21.74,32.07,22.18z M31.04,19.26
	c0-0.39-0.11-0.65-0.34-0.79c-0.15-0.09-0.37-0.14-0.67-0.14h-0.76v2.11h0.57c0.32,0,0.56-0.05,0.75-0.16
	C30.89,20.1,31.04,19.76,31.04,19.26z M31.26,22.2c0-0.36-0.1-0.65-0.31-0.85c-0.21-0.2-0.51-0.3-0.92-0.3h-0.76v2.24h0.81
	c0.39,0,0.69-0.09,0.89-0.28C31.16,22.83,31.26,22.56,31.26,22.2z M36.79,23.73c0,0.02-0.02,0.05-0.07,0.07l-0.36,0.23
	c-0.08,0.05-0.15,0.01-0.23-0.12l-0.15-0.32l-0.03-0.07c-0.25,0.2-0.48,0.33-0.68,0.41s-0.43,0.12-0.66,0.12
	c-0.5,0-0.85-0.15-1.05-0.45c-0.13-0.21-0.2-0.51-0.2-0.92v-3.02c0-0.06,0.02-0.1,0.06-0.11l0.49-0.12h0.07
	c0.02,0,0.05,0.03,0.06,0.08v3.19c0,0.27,0.07,0.46,0.22,0.58c0.12,0.1,0.28,0.15,0.48,0.15c0.18,0,0.37-0.05,0.58-0.16
	c0.17-0.08,0.34-0.18,0.5-0.31v-3.31c0-0.06,0.02-0.1,0.06-0.11l0.49-0.12h0.07c0.02,0,0.05,0.03,0.06,0.08v3.44
	c0,0.11,0.02,0.23,0.07,0.36c0.02,0.04,0.04,0.1,0.08,0.16s0.06,0.11,0.07,0.14S36.76,23.68,36.79,23.73z M40.64,22.78
	c0,0.39-0.15,0.71-0.45,0.94c-0.27,0.21-0.61,0.32-1,0.32c-0.22,0-0.45-0.03-0.67-0.09c-0.22-0.06-0.41-0.13-0.56-0.2
	c-0.03-0.01-0.06-0.03-0.08-0.04c-0.05-0.04-0.07-0.07-0.07-0.1l0.01-0.06l0.17-0.36c0.01-0.03,0.03-0.04,0.05-0.04
	c0.03,0.01,0.06,0.01,0.08,0.02c0.07,0.04,0.14,0.06,0.19,0.09c0.12,0.06,0.26,0.11,0.43,0.15c0.16,0.04,0.32,0.06,0.46,0.06
	c0.5,0,0.75-0.22,0.75-0.65c0-0.19-0.08-0.35-0.24-0.48c-0.1-0.08-0.31-0.19-0.64-0.34c-0.4-0.19-0.66-0.34-0.79-0.45
	c-0.24-0.21-0.35-0.49-0.35-0.84c0-0.36,0.12-0.66,0.37-0.89c0.25-0.23,0.57-0.35,0.97-0.35c0.19,0,0.41,0.03,0.64,0.09
	c0.07,0.02,0.15,0.05,0.25,0.09c0.1,0.04,0.18,0.07,0.23,0.1c0.05,0.03,0.08,0.05,0.08,0.08s0,0.05-0.01,0.08l-0.15,0.34
	c-0.01,0.03-0.03,0.05-0.05,0.05c-0.02,0.01-0.03,0.01-0.04,0.01l-0.14-0.05c-0.28-0.13-0.53-0.19-0.76-0.19
	c-0.23,0-0.4,0.06-0.52,0.17c-0.12,0.11-0.18,0.26-0.18,0.44c0,0.16,0.05,0.29,0.14,0.4c0.09,0.11,0.34,0.26,0.73,0.44
	c0.39,0.18,0.65,0.33,0.79,0.45C40.52,22.14,40.64,22.43,40.64,22.78z M42.94,23.82c0,0.07-0.04,0.11-0.11,0.11h-0.47
	c-0.07,0-0.11-0.04-0.11-0.11v-3.69h-0.71c-0.07,0-0.11-0.04-0.11-0.11v-0.35c0-0.07,0.04-0.11,0.11-0.11h1.28
	c0.08,0,0.12,0.04,0.12,0.14V23.82z M43.12,17.95c0,0.16-0.05,0.29-0.16,0.4c-0.11,0.11-0.24,0.16-0.4,0.16s-0.29-0.05-0.4-0.16
	c-0.11-0.11-0.16-0.24-0.16-0.4c0-0.16,0.05-0.29,0.16-0.4c0.11-0.11,0.24-0.16,0.4-0.16s0.29,0.05,0.4,0.16
	C43.06,17.66,43.12,17.79,43.12,17.95z M47.7,23.82c0,0.07-0.04,0.11-0.11,0.11h-0.47c-0.07,0-0.11-0.04-0.11-0.11v-3.04
	c0-0.21-0.03-0.36-0.08-0.46c-0.09-0.18-0.26-0.27-0.51-0.27c-0.21,0-0.44,0.06-0.67,0.18c-0.2,0.1-0.38,0.23-0.53,0.37v3.22
	c0,0.07-0.04,0.11-0.11,0.11h-0.47c-0.07,0-0.11-0.04-0.11-0.11v-3.27c0-0.18-0.01-0.3-0.02-0.37c-0.02-0.07-0.04-0.15-0.09-0.24
	l-0.03-0.05c-0.02-0.04-0.04-0.07-0.04-0.1c0-0.02,0-0.03,0-0.04c0-0.02,0.01-0.03,0.02-0.04s0.02-0.01,0.03-0.02l0.43-0.24
	c0.07-0.04,0.14-0.01,0.19,0.1c0.03,0.05,0.06,0.13,0.09,0.23c0.03,0.1,0.05,0.19,0.06,0.26c0.19-0.17,0.41-0.31,0.65-0.42
	c0.29-0.13,0.57-0.2,0.86-0.2c0.46,0,0.76,0.16,0.91,0.49c0.08,0.18,0.13,0.47,0.13,0.87V23.82z M52.38,21.73
	c0,0.1-0.03,0.15-0.1,0.15h-2.61v0.04c0,0.49,0.13,0.87,0.4,1.14c0.24,0.24,0.52,0.36,0.85,0.36c0.18,0,0.34-0.03,0.49-0.08
	c0.15-0.05,0.32-0.13,0.51-0.24l0.11-0.04c0.04,0.02,0.06,0.03,0.06,0.05l0.16,0.41l0.01,0.05c0,0.02-0.02,0.05-0.07,0.08
	c-0.05,0.03-0.14,0.08-0.29,0.15c-0.15,0.07-0.3,0.12-0.46,0.17c-0.16,0.04-0.35,0.06-0.55,0.06c-0.53,0-0.98-0.16-1.33-0.48
	c-0.44-0.4-0.65-1.01-0.65-1.83c0-0.72,0.17-1.29,0.5-1.69c0.34-0.41,0.77-0.61,1.31-0.61c0.46,0,0.83,0.14,1.1,0.43
	c0.36,0.38,0.54,0.99,0.54,1.83V21.73z M51.64,21.32c0-0.09-0.01-0.21-0.03-0.35s-0.06-0.28-0.12-0.43c-0.08-0.2-0.2-0.34-0.34-0.43
	S50.85,20,50.68,20c-0.28,0-0.51,0.1-0.68,0.29c-0.22,0.24-0.33,0.58-0.33,1.04H51.64z M56.11,22.78c0,0.39-0.15,0.71-0.45,0.94
	c-0.27,0.21-0.61,0.32-1,0.32c-0.22,0-0.45-0.03-0.67-0.09c-0.22-0.06-0.41-0.13-0.56-0.2c-0.03-0.01-0.06-0.03-0.08-0.04
	c-0.05-0.04-0.07-0.07-0.07-0.1l0.01-0.06l0.17-0.36c0.01-0.03,0.03-0.04,0.05-0.04c0.03,0.01,0.06,0.01,0.08,0.02
	c0.07,0.04,0.14,0.06,0.19,0.09c0.12,0.06,0.26,0.11,0.43,0.15c0.16,0.04,0.32,0.06,0.46,0.06c0.5,0,0.75-0.22,0.75-0.65
	c0-0.19-0.08-0.35-0.24-0.48c-0.1-0.08-0.31-0.19-0.64-0.34c-0.4-0.19-0.66-0.34-0.79-0.45c-0.24-0.21-0.35-0.49-0.35-0.84
	c0-0.36,0.12-0.66,0.37-0.89c0.25-0.23,0.57-0.35,0.97-0.35c0.19,0,0.41,0.03,0.64,0.09c0.07,0.02,0.15,0.05,0.25,0.09
	c0.1,0.04,0.18,0.07,0.23,0.1c0.05,0.03,0.08,0.05,0.08,0.08s0,0.05-0.01,0.08l-0.15,0.34c-0.01,0.03-0.03,0.05-0.05,0.05
	c-0.02,0.01-0.03,0.01-0.04,0.01l-0.14-0.05c-0.28-0.13-0.53-0.19-0.76-0.19c-0.23,0-0.4,0.06-0.52,0.17
	c-0.12,0.11-0.18,0.26-0.18,0.44c0,0.16,0.05,0.29,0.14,0.4c0.09,0.11,0.34,0.26,0.73,0.44c0.39,0.18,0.65,0.33,0.79,0.45
	C55.99,22.14,56.11,22.43,56.11,22.78z M59.81,22.78c0,0.39-0.15,0.71-0.45,0.94c-0.27,0.21-0.61,0.32-1,0.32
	c-0.22,0-0.45-0.03-0.67-0.09c-0.22-0.06-0.41-0.13-0.56-0.2c-0.03-0.01-0.06-0.03-0.08-0.04c-0.05-0.04-0.07-0.07-0.07-0.1
	l0.01-0.06l0.17-0.36c0.01-0.03,0.03-0.04,0.05-0.04c0.03,0.01,0.06,0.01,0.08,0.02c0.07,0.04,0.14,0.06,0.19,0.09
	c0.12,0.06,0.26,0.11,0.43,0.15c0.16,0.04,0.32,0.06,0.46,0.06c0.5,0,0.75-0.22,0.75-0.65c0-0.19-0.08-0.35-0.24-0.48
	c-0.1-0.08-0.31-0.19-0.64-0.34c-0.4-0.19-0.66-0.34-0.79-0.45c-0.24-0.21-0.35-0.49-0.35-0.84c0-0.36,0.12-0.66,0.37-0.89
	c0.25-0.23,0.57-0.35,0.97-0.35c0.19,0,0.41,0.03,0.64,0.09c0.07,0.02,0.15,0.05,0.25,0.09c0.1,0.04,0.18,0.07,0.23,0.1
	c0.05,0.03,0.08,0.05,0.08,0.08s0,0.05-0.01,0.08l-0.15,0.34c-0.01,0.03-0.03,0.05-0.05,0.05c-0.02,0.01-0.03,0.01-0.04,0.01
	l-0.14-0.05c-0.28-0.13-0.53-0.19-0.76-0.19c-0.23,0-0.4,0.06-0.52,0.17c-0.12,0.11-0.18,0.26-0.18,0.44c0,0.16,0.05,0.29,0.14,0.4
	c0.09,0.11,0.34,0.26,0.73,0.44c0.39,0.18,0.65,0.33,0.79,0.45C59.69,22.14,59.81,22.43,59.81,22.78z M67.08,23.83
	c0.02,0.05,0.01,0.08-0.02,0.1h-0.09h-0.6c-0.07,0-0.11-0.03-0.13-0.1l-0.51-1.76h-1.87l-0.46,1.75c-0.02,0.07-0.07,0.11-0.16,0.11
	h-0.59c-0.08,0-0.11-0.04-0.08-0.11l1.85-6.02c0.02-0.07,0.07-0.1,0.14-0.1h0.54c0.07,0,0.11,0.03,0.14,0.1L67.08,23.83z
	 M65.56,21.43l-0.55-2.01c-0.04-0.12-0.07-0.24-0.09-0.35c-0.05-0.22-0.09-0.39-0.12-0.52c-0.04,0.19-0.07,0.35-0.1,0.48
	c-0.03,0.13-0.07,0.26-0.1,0.39l-0.55,2.01H65.56z M71.54,21.71c0,0.91-0.2,1.56-0.6,1.94c-0.27,0.26-0.62,0.39-1.04,0.39
	c-0.22,0-0.43-0.04-0.65-0.12c-0.12-0.05-0.24-0.11-0.35-0.18v1.87c-0.02,0.07-0.04,0.1-0.07,0.11l-0.44,0.11c-0.04,0-0.07,0-0.1,0
	c-0.05,0-0.08-0.03-0.08-0.1v-4.99c0-0.17-0.01-0.31-0.03-0.42s-0.08-0.25-0.18-0.43c-0.04-0.07-0.06-0.11-0.06-0.13
	c0-0.02,0.01-0.04,0.02-0.05s0.02-0.01,0.03-0.02l0.39-0.25c0.05-0.04,0.11-0.03,0.15,0.02c0.05,0.05,0.1,0.12,0.14,0.21
	s0.08,0.19,0.1,0.28l0.07-0.05c0.17-0.13,0.34-0.23,0.5-0.31c0.24-0.12,0.47-0.17,0.69-0.17c0.36,0,0.67,0.12,0.91,0.36
	C71.35,20.18,71.54,20.82,71.54,21.71z M70.8,21.69c0-0.67-0.08-1.12-0.23-1.33c-0.15-0.21-0.38-0.32-0.67-0.32
	c-0.16,0-0.34,0.05-0.54,0.15c-0.13,0.07-0.28,0.16-0.45,0.29v2.65c0.12,0.08,0.27,0.15,0.46,0.21s0.35,0.09,0.5,0.09
	c0.39,0,0.66-0.18,0.79-0.54C70.75,22.66,70.8,22.26,70.8,21.69z M76.16,21.71c0,0.91-0.2,1.56-0.6,1.94
	c-0.27,0.26-0.62,0.39-1.04,0.39c-0.22,0-0.43-0.04-0.65-0.12c-0.12-0.05-0.24-0.11-0.35-0.18v1.87c-0.02,0.07-0.04,0.1-0.07,0.11
	l-0.44,0.11c-0.04,0-0.07,0-0.1,0c-0.05,0-0.08-0.03-0.08-0.1v-4.99c0-0.17-0.01-0.31-0.03-0.42s-0.08-0.25-0.18-0.43
	c-0.04-0.07-0.06-0.11-0.06-0.13c0-0.02,0.01-0.04,0.02-0.05s0.02-0.01,0.03-0.02l0.39-0.25c0.05-0.04,0.11-0.03,0.15,0.02
	c0.05,0.05,0.1,0.12,0.14,0.21s0.08,0.19,0.1,0.28l0.07-0.05c0.17-0.13,0.34-0.23,0.5-0.31c0.24-0.12,0.47-0.17,0.69-0.17
	c0.36,0,0.67,0.12,0.91,0.36C75.97,20.18,76.16,20.82,76.16,21.71z M75.42,21.69c0-0.67-0.08-1.12-0.23-1.33
	c-0.15-0.21-0.38-0.32-0.67-0.32c-0.16,0-0.34,0.05-0.54,0.15c-0.13,0.07-0.28,0.16-0.45,0.29v2.65c0.12,0.08,0.27,0.15,0.46,0.21
	s0.35,0.09,0.5,0.09c0.39,0,0.66-0.18,0.79-0.54C75.37,22.66,75.42,22.26,75.42,21.69z M79.14,23.77c0.02,0.04,0.01,0.08-0.04,0.11
	c-0.09,0.05-0.21,0.09-0.36,0.12c-0.15,0.03-0.27,0.04-0.37,0.04c-0.13,0-0.25-0.02-0.38-0.06c-0.13-0.04-0.23-0.1-0.32-0.17
	c-0.13-0.11-0.21-0.27-0.25-0.49c-0.01-0.07-0.02-0.19-0.03-0.38c-0.01-0.18-0.01-0.31-0.01-0.39v-5c0-0.06,0.02-0.1,0.07-0.11
	l0.47-0.12h0.08c0.04,0,0.06,0.04,0.06,0.12v5.17c0,0.12,0,0.22,0,0.32c0,0.1,0.01,0.19,0.03,0.28c0.02,0.09,0.07,0.15,0.14,0.19
	s0.15,0.06,0.24,0.06c0.07,0,0.13-0.01,0.19-0.02s0.11-0.03,0.17-0.05l0.13-0.03l0.04,0.05L79.14,23.77z M80.9,23.82
	c0,0.07-0.04,0.11-0.11,0.11h-0.47c-0.07,0-0.11-0.04-0.11-0.11v-3.69H79.5c-0.07,0-0.11-0.04-0.11-0.11v-0.35
	c0-0.07,0.04-0.11,0.11-0.11h1.28c0.08,0,0.12,0.04,0.12,0.14V23.82z M81.07,17.95c0,0.16-0.05,0.29-0.16,0.4
	c-0.11,0.11-0.24,0.16-0.4,0.16s-0.29-0.05-0.4-0.16c-0.11-0.11-0.16-0.24-0.16-0.4c0-0.16,0.05-0.29,0.16-0.4
	c0.11-0.11,0.24-0.16,0.4-0.16s0.29,0.05,0.4,0.16C81.02,17.66,81.07,17.79,81.07,17.95z M85.35,23.58c0,0.02-0.02,0.05-0.07,0.08
	c-0.05,0.03-0.14,0.08-0.29,0.15c-0.15,0.07-0.3,0.12-0.46,0.17c-0.16,0.04-0.35,0.06-0.55,0.06c-0.5,0-0.9-0.15-1.2-0.44
	c-0.38-0.37-0.57-0.96-0.57-1.78c0-0.77,0.19-1.38,0.56-1.82c0.33-0.39,0.75-0.58,1.26-0.58c0.42,0,0.82,0.13,1.17,0.38
	c0.08,0.06,0.13,0.11,0.15,0.14s0.01,0.06,0,0.09l-0.22,0.41l-0.05,0.04c-0.02,0-0.05-0.02-0.11-0.06
	c-0.16-0.13-0.31-0.22-0.45-0.29c-0.14-0.06-0.29-0.1-0.45-0.1c-0.37,0-0.65,0.14-0.84,0.43s-0.29,0.71-0.29,1.27
	c0,0.48,0.05,0.85,0.15,1.1c0.16,0.4,0.46,0.6,0.89,0.6c0.18,0,0.36-0.03,0.53-0.09c0.1-0.04,0.26-0.11,0.47-0.22l0.11-0.04
	c0.04,0.02,0.06,0.03,0.06,0.05l0.16,0.41L85.35,23.58z M89.6,23.73c-0.02,0.04-0.04,0.06-0.05,0.06l-0.38,0.24
	c-0.03,0.02-0.06,0.03-0.09,0.03c-0.03,0-0.08-0.06-0.15-0.17c-0.04-0.07-0.07-0.12-0.09-0.17c-0.02-0.05-0.05-0.13-0.08-0.24v-0.03
	l-0.04,0.04c-0.16,0.16-0.31,0.28-0.45,0.36c-0.24,0.14-0.5,0.21-0.78,0.21c-0.41,0-0.73-0.13-0.95-0.4
	c-0.19-0.23-0.28-0.52-0.28-0.88c0-0.34,0.09-0.63,0.27-0.86c0.22-0.28,0.56-0.48,1.01-0.59c0.16-0.04,0.33-0.07,0.53-0.09
	c0.2-0.02,0.37-0.04,0.53-0.04h0.04v-0.33c0-0.25-0.04-0.43-0.12-0.55c-0.12-0.18-0.33-0.26-0.65-0.26c-0.35,0-0.68,0.08-1.01,0.24
	l-0.14,0.05c-0.02,0-0.04-0.01-0.05-0.02c-0.01-0.01-0.02-0.02-0.02-0.03l-0.14-0.36l-0.01-0.07c0-0.03,0.02-0.06,0.06-0.08
	s0.09-0.05,0.14-0.07c0.4-0.18,0.82-0.26,1.25-0.26c0.92,0,1.37,0.42,1.37,1.25v2.07c0,0.26,0.04,0.48,0.11,0.66l0.13,0.25
	L89.6,23.73z M88.63,22.92v-1.17H88.6c-0.66,0-1.12,0.12-1.38,0.34c-0.19,0.16-0.28,0.38-0.28,0.64c0,0.25,0.07,0.44,0.22,0.57
	c0.12,0.12,0.27,0.17,0.45,0.17s0.37-0.07,0.59-0.2c0.14-0.08,0.27-0.19,0.39-0.31L88.63,22.92z M93.34,23.6
	c0.02,0.05,0.01,0.09-0.02,0.12c-0.05,0.05-0.17,0.12-0.35,0.18c-0.12,0.04-0.25,0.08-0.4,0.1c-0.15,0.03-0.28,0.04-0.39,0.04
	c-0.16,0-0.32-0.03-0.47-0.08c-0.15-0.05-0.28-0.13-0.39-0.25c-0.11-0.12-0.18-0.25-0.21-0.41s-0.05-0.36-0.05-0.61v-2.58h-0.64
	c-0.07,0-0.11-0.04-0.11-0.11v-0.35c0-0.07,0.04-0.11,0.11-0.11h0.64v-1.25c0-0.05,0.03-0.09,0.1-0.11l0.48-0.14
	c0.07-0.02,0.11,0.01,0.11,0.09v1.4h1.35c0.08,0,0.12,0.04,0.09,0.13l-0.12,0.35c-0.01,0.04-0.03,0.06-0.05,0.06
	s-0.04,0.01-0.07,0.02h-1.2v2.58c0,0.31,0.04,0.52,0.12,0.6c0.08,0.09,0.22,0.13,0.4,0.13c0.15,0,0.28-0.02,0.41-0.06
	c0.13-0.04,0.24-0.08,0.34-0.13l0.13-0.05c0.03,0,0.06,0.02,0.08,0.05L93.34,23.6z M95.46,23.82c0,0.07-0.04,0.11-0.11,0.11h-0.47
	c-0.07,0-0.11-0.04-0.11-0.11v-3.69h-0.71c-0.07,0-0.11-0.04-0.11-0.11v-0.35c0-0.07,0.04-0.11,0.11-0.11h1.28
	c0.08,0,0.12,0.04,0.12,0.14V23.82z M95.63,17.95c0,0.16-0.05,0.29-0.16,0.4c-0.11,0.11-0.24,0.16-0.4,0.16s-0.29-0.05-0.4-0.16
	c-0.11-0.11-0.16-0.24-0.16-0.4c0-0.16,0.05-0.29,0.16-0.4c0.11-0.11,0.24-0.16,0.4-0.16s0.29,0.05,0.4,0.16
	C95.58,17.66,95.63,17.79,95.63,17.95z M100.37,21.74c0,0.82-0.2,1.44-0.61,1.83c-0.32,0.31-0.72,0.47-1.2,0.47
	c-0.47,0-0.87-0.16-1.19-0.47c-0.41-0.41-0.62-1.02-0.62-1.83c0-0.82,0.2-1.43,0.61-1.83c0.32-0.32,0.72-0.47,1.2-0.47
	c0.47,0,0.87,0.16,1.19,0.47C100.16,20.31,100.37,20.92,100.37,21.74z M99.62,21.74c0-0.59-0.09-1.02-0.27-1.31
	C99.17,20.14,98.9,20,98.56,20c-0.44,0-0.74,0.23-0.91,0.69c-0.1,0.28-0.15,0.63-0.15,1.05c0,0.59,0.09,1.02,0.27,1.31
	c0.18,0.29,0.45,0.43,0.79,0.43c0.44,0,0.74-0.23,0.91-0.69C99.57,22.51,99.62,22.16,99.62,21.74z M104.83,23.82
	c0,0.07-0.04,0.11-0.11,0.11h-0.47c-0.07,0-0.11-0.04-0.11-0.11v-3.04c0-0.21-0.03-0.36-0.08-0.46c-0.09-0.18-0.26-0.27-0.51-0.27
	c-0.21,0-0.44,0.06-0.67,0.18c-0.2,0.1-0.38,0.23-0.53,0.37v3.22c0,0.07-0.04,0.11-0.11,0.11h-0.47c-0.07,0-0.11-0.04-0.11-0.11
	v-3.27c0-0.18-0.01-0.3-0.02-0.37c-0.02-0.07-0.04-0.15-0.09-0.24l-0.03-0.05c-0.02-0.04-0.04-0.07-0.04-0.1c0-0.02,0-0.03,0-0.04
	c0-0.02,0.01-0.03,0.02-0.04s0.02-0.01,0.03-0.02l0.43-0.24c0.07-0.04,0.14-0.01,0.19,0.1c0.03,0.05,0.06,0.13,0.09,0.23
	c0.03,0.1,0.05,0.19,0.06,0.26c0.19-0.17,0.41-0.31,0.65-0.42c0.29-0.13,0.57-0.2,0.86-0.2c0.46,0,0.76,0.16,0.91,0.49
	c0.08,0.18,0.13,0.47,0.13,0.87V23.82z M111.95,19.35c0,0.64-0.17,1.12-0.52,1.45c-0.35,0.33-0.83,0.5-1.44,0.5h-0.66v2.52
	c0,0.07-0.04,0.11-0.11,0.11h-0.53c-0.07,0-0.11-0.04-0.11-0.11V17.8c0-0.07,0.04-0.11,0.11-0.11h1.41c0.52,0,0.91,0.07,1.16,0.21
	C111.72,18.15,111.95,18.63,111.95,19.35z M111.2,19.4c0-0.46-0.12-0.76-0.35-0.91c-0.16-0.1-0.43-0.15-0.82-0.15h-0.7v2.33h0.59
	c0.35,0,0.62-0.05,0.8-0.16C111.04,20.3,111.2,19.94,111.2,19.4z M114.83,23.77c0.02,0.04,0.01,0.08-0.04,0.11
	c-0.09,0.05-0.21,0.09-0.36,0.12c-0.15,0.03-0.27,0.04-0.37,0.04c-0.13,0-0.25-0.02-0.38-0.06c-0.13-0.04-0.23-0.1-0.32-0.17
	c-0.13-0.11-0.21-0.27-0.25-0.49c-0.01-0.07-0.02-0.19-0.03-0.38c-0.01-0.18-0.01-0.31-0.01-0.39v-5c0-0.06,0.02-0.1,0.07-0.11
	l0.47-0.12h0.08c0.04,0,0.06,0.04,0.06,0.12v5.17c0,0.12,0,0.22,0,0.32c0,0.1,0.01,0.19,0.03,0.28c0.02,0.09,0.07,0.15,0.14,0.19
	s0.15,0.06,0.24,0.06c0.07,0,0.13-0.01,0.19-0.02s0.11-0.03,0.17-0.05l0.13-0.03l0.04,0.05L114.83,23.77z M118.83,23.73
	c-0.02,0.04-0.04,0.06-0.05,0.06l-0.38,0.24c-0.03,0.02-0.06,0.03-0.09,0.03c-0.03,0-0.08-0.06-0.15-0.17
	c-0.04-0.07-0.07-0.12-0.09-0.17c-0.02-0.05-0.05-0.13-0.08-0.24v-0.03l-0.04,0.04c-0.16,0.16-0.31,0.28-0.45,0.36
	c-0.24,0.14-0.5,0.21-0.78,0.21c-0.41,0-0.73-0.13-0.95-0.4c-0.19-0.23-0.28-0.52-0.28-0.88c0-0.34,0.09-0.63,0.27-0.86
	c0.22-0.28,0.56-0.48,1.01-0.59c0.16-0.04,0.33-0.07,0.53-0.09c0.2-0.02,0.37-0.04,0.53-0.04h0.04v-0.33c0-0.25-0.04-0.43-0.12-0.55
	c-0.12-0.18-0.33-0.26-0.65-0.26c-0.35,0-0.68,0.08-1.01,0.24l-0.14,0.05c-0.02,0-0.04-0.01-0.05-0.02
	c-0.01-0.01-0.02-0.02-0.02-0.03l-0.14-0.36l-0.01-0.07c0-0.03,0.02-0.06,0.06-0.08s0.09-0.05,0.14-0.07
	c0.4-0.18,0.82-0.26,1.25-0.26c0.92,0,1.37,0.42,1.37,1.25v2.07c0,0.26,0.04,0.48,0.11,0.66l0.13,0.25L118.83,23.73z M117.87,22.92
	v-1.17h-0.04c-0.66,0-1.12,0.12-1.38,0.34c-0.19,0.16-0.28,0.38-0.28,0.64c0,0.25,0.07,0.44,0.22,0.57
	c0.12,0.12,0.27,0.17,0.45,0.17s0.37-0.07,0.59-0.2c0.14-0.08,0.27-0.19,0.39-0.31L117.87,22.92z M122.57,23.6
	c0.02,0.05,0.01,0.09-0.02,0.12c-0.05,0.05-0.17,0.12-0.35,0.18c-0.12,0.04-0.25,0.08-0.4,0.1c-0.15,0.03-0.28,0.04-0.39,0.04
	c-0.16,0-0.32-0.03-0.47-0.08c-0.15-0.05-0.28-0.13-0.39-0.25c-0.11-0.12-0.18-0.25-0.21-0.41s-0.05-0.36-0.05-0.61v-2.58h-0.64
	c-0.07,0-0.11-0.04-0.11-0.11v-0.35c0-0.07,0.04-0.11,0.11-0.11h0.64v-1.25c0-0.05,0.03-0.09,0.1-0.11l0.48-0.14
	c0.07-0.02,0.11,0.01,0.11,0.09v1.4h1.35c0.08,0,0.12,0.04,0.09,0.13l-0.12,0.35c-0.01,0.04-0.03,0.06-0.05,0.06
	s-0.04,0.01-0.07,0.02h-1.2v2.58c0,0.31,0.04,0.52,0.12,0.6c0.08,0.09,0.22,0.13,0.4,0.13c0.15,0,0.28-0.02,0.41-0.06
	c0.13-0.04,0.24-0.08,0.34-0.13l0.13-0.05c0.03,0,0.06,0.02,0.08,0.05L122.57,23.6z M126.13,17.71l-0.15,0.37
	c-0.01,0.02-0.02,0.03-0.03,0.04c-0.02,0.01-0.03,0.01-0.03,0.01c-0.02,0-0.05,0-0.06-0.01s-0.07-0.02-0.15-0.05
	c-0.08-0.03-0.17-0.06-0.27-0.09c-0.1-0.03-0.21-0.04-0.31-0.04c-0.11,0-0.2,0.02-0.27,0.05s-0.13,0.08-0.17,0.14
	s-0.07,0.15-0.08,0.25s-0.02,0.22-0.02,0.32v0.85h1.31c0.08,0,0.12,0.04,0.09,0.13l-0.12,0.35c-0.01,0.04-0.03,0.06-0.05,0.06
	c-0.02,0.01-0.04,0.01-0.07,0.02h-1.16v3.69c0,0.07-0.04,0.11-0.11,0.11H124c-0.07,0-0.11-0.04-0.11-0.11v-3.69h-0.59
	c-0.07,0-0.11-0.04-0.11-0.11v-0.35c0-0.07,0.04-0.11,0.11-0.11h0.59v-0.71c0-0.22,0.02-0.42,0.05-0.58
	c0.03-0.16,0.09-0.32,0.19-0.46c0.09-0.14,0.21-0.25,0.35-0.32c0.19-0.1,0.42-0.16,0.68-0.16c0.16,0,0.33,0.02,0.49,0.06
	c0.08,0.02,0.19,0.06,0.35,0.12c0.08,0.04,0.13,0.07,0.14,0.1S126.15,17.68,126.13,17.71z M130.09,21.74c0,0.82-0.2,1.44-0.61,1.83
	c-0.32,0.31-0.72,0.47-1.2,0.47c-0.47,0-0.87-0.16-1.19-0.47c-0.41-0.41-0.62-1.02-0.62-1.83c0-0.82,0.2-1.43,0.61-1.83
	c0.32-0.32,0.72-0.47,1.2-0.47c0.47,0,0.87,0.16,1.19,0.47C129.89,20.31,130.09,20.92,130.09,21.74z M129.35,21.74
	c0-0.59-0.09-1.02-0.27-1.31c-0.18-0.29-0.45-0.43-0.79-0.43c-0.44,0-0.74,0.23-0.91,0.69c-0.1,0.28-0.15,0.63-0.15,1.05
	c0,0.59,0.09,1.02,0.27,1.31c0.18,0.29,0.45,0.43,0.79,0.43c0.44,0,0.74-0.23,0.91-0.69C129.3,22.51,129.35,22.16,129.35,21.74z
	 M133.48,19.63l-0.22,0.5c-0.01,0.01-0.02,0.02-0.03,0.03c-0.01,0.01-0.02,0.02-0.03,0.02c-0.04-0.02-0.08-0.04-0.12-0.05
	c-0.04-0.02-0.08-0.03-0.15-0.03c-0.12,0-0.26,0.06-0.41,0.19c-0.09,0.08-0.2,0.19-0.33,0.35l-0.15,0.18v2.99
	c0,0.07-0.04,0.11-0.11,0.11h-0.47c-0.07,0-0.11-0.04-0.11-0.11V20.7c0-0.16-0.01-0.28-0.03-0.37c-0.02-0.09-0.06-0.2-0.12-0.32
	l-0.06-0.13c-0.02-0.05-0.04-0.08-0.04-0.1c0-0.03,0.01-0.05,0.04-0.07l0.36-0.24l0.06-0.04c0.06,0.01,0.12,0.05,0.17,0.15
	c0.05,0.09,0.1,0.19,0.13,0.3c0.04,0.11,0.06,0.21,0.08,0.32l0.13-0.15c0.16-0.19,0.29-0.33,0.39-0.4c0.19-0.15,0.39-0.22,0.59-0.22
	c0.07,0,0.13,0,0.17,0.01c0.04,0.01,0.1,0.03,0.17,0.05S133.51,19.57,133.48,19.63z M139.55,23.82c0,0.07-0.04,0.11-0.11,0.11h-0.47
	c-0.07,0-0.11-0.04-0.11-0.11v-3.04c0-0.19-0.03-0.35-0.08-0.46c-0.1-0.19-0.27-0.28-0.51-0.28c-0.16,0-0.33,0.05-0.53,0.15
	c-0.06,0.03-0.15,0.09-0.28,0.17l-0.07,0.05v3.41c0,0.07-0.04,0.11-0.11,0.11h-0.47c-0.07,0-0.11-0.04-0.11-0.11v-3.04
	c0-0.2-0.03-0.35-0.08-0.46c-0.09-0.18-0.26-0.27-0.51-0.27c-0.16,0-0.31,0.03-0.45,0.09c-0.13,0.06-0.28,0.16-0.44,0.28v3.41
	c0,0.07-0.04,0.11-0.11,0.11h-0.47c-0.07,0-0.11-0.04-0.11-0.11V20.7c0-0.28-0.01-0.48-0.04-0.59s-0.06-0.21-0.11-0.3l-0.03-0.06
	l0.05-0.05l0.41-0.23c0.04-0.02,0.06-0.03,0.07-0.03c0.04,0,0.07,0.02,0.09,0.07c0.02,0.05,0.05,0.12,0.09,0.23
	c0.04,0.1,0.06,0.19,0.06,0.25c0.23-0.19,0.42-0.32,0.57-0.39c0.21-0.1,0.45-0.16,0.71-0.16c0.21,0,0.38,0.04,0.52,0.13
	c0.14,0.09,0.25,0.23,0.33,0.42c0.27-0.19,0.5-0.33,0.71-0.42c0.21-0.08,0.4-0.13,0.58-0.13c0.42,0,0.71,0.16,0.86,0.47
	c0.1,0.2,0.15,0.5,0.15,0.89V23.82z"/>
</svg>
